<mxfile host="app.diagrams.net" modified="2023-04-20T23:48:09.871Z" agent="Mozilla/5.0 (Windows NT 10.0; Win64; x64) AppleWebKit/537.36 (KHTML, like Gecko) Chrome/112.0.0.0 Safari/537.36" etag="FJ4HA-scjW0GagYDIr77" version="21.1.8" type="device">
  <diagram name="PÃ¡gina-1" id="TAxHWgnULGTUfLDTjxFi">
    <mxGraphModel dx="1781" dy="1753" grid="1" gridSize="10" guides="1" tooltips="1" connect="1" arrows="1" fold="1" page="1" pageScale="1" pageWidth="827" pageHeight="1169" math="0" shadow="0">
      <root>
        <mxCell id="0" />
        <mxCell id="1" parent="0" />
        <mxCell id="S2yjp2YEOyChedMAhL5v-87" value="" style="rounded=0;whiteSpace=wrap;html=1;" vertex="1" parent="1">
          <mxGeometry x="1090" y="62.5" width="120" height="70" as="geometry" />
        </mxCell>
        <mxCell id="S2yjp2YEOyChedMAhL5v-32" value="" style="rounded=0;whiteSpace=wrap;html=1;" vertex="1" parent="1">
          <mxGeometry x="205" y="450" width="120" height="60" as="geometry" />
        </mxCell>
        <mxCell id="S2yjp2YEOyChedMAhL5v-1" value="Productor" style="rounded=0;whiteSpace=wrap;html=1;" vertex="1" parent="1">
          <mxGeometry x="150" y="60" width="120" height="60" as="geometry" />
        </mxCell>
        <mxCell id="S2yjp2YEOyChedMAhL5v-2" value="Nuclear" style="ellipse;whiteSpace=wrap;html=1;" vertex="1" parent="1">
          <mxGeometry x="210" y="310" width="80" height="40" as="geometry" />
        </mxCell>
        <mxCell id="S2yjp2YEOyChedMAhL5v-3" value="Termica" style="ellipse;whiteSpace=wrap;html=1;" vertex="1" parent="1">
          <mxGeometry x="330" y="290" width="80" height="40" as="geometry" />
        </mxCell>
        <mxCell id="S2yjp2YEOyChedMAhL5v-4" value="Solar" style="ellipse;whiteSpace=wrap;html=1;" vertex="1" parent="1">
          <mxGeometry x="-30" y="300" width="80" height="40" as="geometry" />
        </mxCell>
        <mxCell id="S2yjp2YEOyChedMAhL5v-5" value="id" style="ellipse;whiteSpace=wrap;html=1;" vertex="1" parent="1">
          <mxGeometry x="110" width="60" height="30" as="geometry" />
        </mxCell>
        <mxCell id="S2yjp2YEOyChedMAhL5v-6" value="Hidro" style="ellipse;whiteSpace=wrap;html=1;" vertex="1" parent="1">
          <mxGeometry x="90" y="310" width="80" height="40" as="geometry" />
        </mxCell>
        <mxCell id="S2yjp2YEOyChedMAhL5v-8" value="Tipo" style="shape=hexagon;perimeter=hexagonPerimeter2;whiteSpace=wrap;html=1;fixedSize=1;" vertex="1" parent="1">
          <mxGeometry x="140" y="160" width="150" height="60" as="geometry" />
        </mxCell>
        <mxCell id="S2yjp2YEOyChedMAhL5v-9" value="" style="endArrow=none;html=1;rounded=0;entryX=0.5;entryY=1;entryDx=0;entryDy=0;exitX=0.638;exitY=-0.075;exitDx=0;exitDy=0;exitPerimeter=0;" edge="1" parent="1" source="S2yjp2YEOyChedMAhL5v-4" target="S2yjp2YEOyChedMAhL5v-8">
          <mxGeometry width="50" height="50" relative="1" as="geometry">
            <mxPoint x="370" y="270" as="sourcePoint" />
            <mxPoint x="420" y="220" as="targetPoint" />
          </mxGeometry>
        </mxCell>
        <mxCell id="S2yjp2YEOyChedMAhL5v-10" value="" style="endArrow=none;html=1;rounded=0;entryX=0.5;entryY=0;entryDx=0;entryDy=0;" edge="1" parent="1" target="S2yjp2YEOyChedMAhL5v-6">
          <mxGeometry width="50" height="50" relative="1" as="geometry">
            <mxPoint x="220" y="220" as="sourcePoint" />
            <mxPoint x="420" y="220" as="targetPoint" />
          </mxGeometry>
        </mxCell>
        <mxCell id="S2yjp2YEOyChedMAhL5v-11" value="" style="endArrow=none;html=1;rounded=0;exitX=0.613;exitY=0.025;exitDx=0;exitDy=0;exitPerimeter=0;entryX=0.625;entryY=1;entryDx=0;entryDy=0;" edge="1" parent="1" source="S2yjp2YEOyChedMAhL5v-2" target="S2yjp2YEOyChedMAhL5v-8">
          <mxGeometry width="50" height="50" relative="1" as="geometry">
            <mxPoint x="370" y="270" as="sourcePoint" />
            <mxPoint x="420" y="220" as="targetPoint" />
          </mxGeometry>
        </mxCell>
        <mxCell id="S2yjp2YEOyChedMAhL5v-12" value="" style="endArrow=none;html=1;rounded=0;exitX=0.625;exitY=1;exitDx=0;exitDy=0;" edge="1" parent="1" source="S2yjp2YEOyChedMAhL5v-8" target="S2yjp2YEOyChedMAhL5v-3">
          <mxGeometry width="50" height="50" relative="1" as="geometry">
            <mxPoint x="370" y="270" as="sourcePoint" />
            <mxPoint x="420" y="220" as="targetPoint" />
          </mxGeometry>
        </mxCell>
        <mxCell id="S2yjp2YEOyChedMAhL5v-17" value="TRANSPORTISTA" style="rounded=0;whiteSpace=wrap;html=1;" vertex="1" parent="1">
          <mxGeometry x="400" y="610" width="120" height="60" as="geometry" />
        </mxCell>
        <mxCell id="S2yjp2YEOyChedMAhL5v-18" value="PROVEEDOR" style="rounded=0;whiteSpace=wrap;html=1;" vertex="1" parent="1">
          <mxGeometry x="80" y="610" width="120" height="60" as="geometry" />
        </mxCell>
        <mxCell id="S2yjp2YEOyChedMAhL5v-19" value="" style="endArrow=none;html=1;rounded=0;entryX=0.625;entryY=0.017;entryDx=0;entryDy=0;entryPerimeter=0;exitX=0;exitY=1;exitDx=0;exitDy=0;" edge="1" parent="1" source="S2yjp2YEOyChedMAhL5v-33" target="S2yjp2YEOyChedMAhL5v-18">
          <mxGeometry width="50" height="50" relative="1" as="geometry">
            <mxPoint x="182.5" y="620" as="sourcePoint" />
            <mxPoint x="440" y="560" as="targetPoint" />
          </mxGeometry>
        </mxCell>
        <mxCell id="S2yjp2YEOyChedMAhL5v-23" value="Id" style="ellipse;whiteSpace=wrap;html=1;" vertex="1" parent="1">
          <mxGeometry x="560" y="620" width="70" height="40" as="geometry" />
        </mxCell>
        <mxCell id="S2yjp2YEOyChedMAhL5v-24" value="Id" style="ellipse;whiteSpace=wrap;html=1;" vertex="1" parent="1">
          <mxGeometry x="20" y="680" width="60" height="40" as="geometry" />
        </mxCell>
        <mxCell id="S2yjp2YEOyChedMAhL5v-25" value="" style="endArrow=none;html=1;rounded=0;exitX=1;exitY=0.5;exitDx=0;exitDy=0;" edge="1" parent="1" source="S2yjp2YEOyChedMAhL5v-24" target="S2yjp2YEOyChedMAhL5v-18">
          <mxGeometry width="50" height="50" relative="1" as="geometry">
            <mxPoint x="390" y="610" as="sourcePoint" />
            <mxPoint x="440" y="560" as="targetPoint" />
          </mxGeometry>
        </mxCell>
        <mxCell id="S2yjp2YEOyChedMAhL5v-26" value="" style="endArrow=none;html=1;rounded=0;entryX=0;entryY=0.5;entryDx=0;entryDy=0;exitX=1;exitY=0.5;exitDx=0;exitDy=0;" edge="1" parent="1" source="S2yjp2YEOyChedMAhL5v-17" target="S2yjp2YEOyChedMAhL5v-23">
          <mxGeometry width="50" height="50" relative="1" as="geometry">
            <mxPoint x="546" y="725" as="sourcePoint" />
            <mxPoint x="676" y="700" as="targetPoint" />
          </mxGeometry>
        </mxCell>
        <mxCell id="S2yjp2YEOyChedMAhL5v-28" value="" style="endArrow=none;html=1;rounded=0;exitX=0.5;exitY=1;exitDx=0;exitDy=0;entryX=0.5;entryY=0;entryDx=0;entryDy=0;" edge="1" parent="1" source="S2yjp2YEOyChedMAhL5v-2" target="S2yjp2YEOyChedMAhL5v-29">
          <mxGeometry width="50" height="50" relative="1" as="geometry">
            <mxPoint x="390" y="410" as="sourcePoint" />
            <mxPoint x="270" y="380" as="targetPoint" />
          </mxGeometry>
        </mxCell>
        <mxCell id="S2yjp2YEOyChedMAhL5v-29" value="" style="rhombus;whiteSpace=wrap;html=1;" vertex="1" parent="1">
          <mxGeometry x="230" y="380" width="70" height="50" as="geometry" />
        </mxCell>
        <mxCell id="S2yjp2YEOyChedMAhL5v-30" value="" style="rhombus;whiteSpace=wrap;html=1;" vertex="1" parent="1">
          <mxGeometry x="240" y="385" width="50" height="40" as="geometry" />
        </mxCell>
        <mxCell id="S2yjp2YEOyChedMAhL5v-31" value="COMPRA" style="rounded=0;whiteSpace=wrap;html=1;" vertex="1" parent="1">
          <mxGeometry x="212.5" y="460" width="105" height="40" as="geometry" />
        </mxCell>
        <mxCell id="S2yjp2YEOyChedMAhL5v-33" value="" style="rhombus;whiteSpace=wrap;html=1;" vertex="1" parent="1">
          <mxGeometry x="160" y="540" width="60" height="55" as="geometry" />
        </mxCell>
        <mxCell id="S2yjp2YEOyChedMAhL5v-35" value="" style="rhombus;whiteSpace=wrap;html=1;" vertex="1" parent="1">
          <mxGeometry x="165" y="547.5" width="50" height="40" as="geometry" />
        </mxCell>
        <mxCell id="S2yjp2YEOyChedMAhL5v-36" value="" style="endArrow=none;html=1;rounded=0;exitX=0.5;exitY=1;exitDx=0;exitDy=0;entryX=0.5;entryY=0;entryDx=0;entryDy=0;" edge="1" parent="1" source="S2yjp2YEOyChedMAhL5v-32" target="S2yjp2YEOyChedMAhL5v-33">
          <mxGeometry width="50" height="50" relative="1" as="geometry">
            <mxPoint x="390" y="580" as="sourcePoint" />
            <mxPoint x="440" y="530" as="targetPoint" />
          </mxGeometry>
        </mxCell>
        <mxCell id="S2yjp2YEOyChedMAhL5v-39" value="" style="rhombus;whiteSpace=wrap;html=1;" vertex="1" parent="1">
          <mxGeometry x="350" y="525" width="70" height="55" as="geometry" />
        </mxCell>
        <mxCell id="S2yjp2YEOyChedMAhL5v-40" value="" style="endArrow=none;html=1;rounded=0;exitX=1;exitY=0.5;exitDx=0;exitDy=0;entryX=0.5;entryY=0;entryDx=0;entryDy=0;" edge="1" parent="1" source="S2yjp2YEOyChedMAhL5v-32" target="S2yjp2YEOyChedMAhL5v-39">
          <mxGeometry width="50" height="50" relative="1" as="geometry">
            <mxPoint x="390" y="620" as="sourcePoint" />
            <mxPoint x="440" y="570" as="targetPoint" />
          </mxGeometry>
        </mxCell>
        <mxCell id="S2yjp2YEOyChedMAhL5v-41" value="" style="endArrow=none;html=1;rounded=0;exitX=0;exitY=0.5;exitDx=0;exitDy=0;entryX=0.5;entryY=1;entryDx=0;entryDy=0;" edge="1" parent="1" source="S2yjp2YEOyChedMAhL5v-17" target="S2yjp2YEOyChedMAhL5v-39">
          <mxGeometry width="50" height="50" relative="1" as="geometry">
            <mxPoint x="390" y="620" as="sourcePoint" />
            <mxPoint x="440" y="570" as="targetPoint" />
          </mxGeometry>
        </mxCell>
        <mxCell id="S2yjp2YEOyChedMAhL5v-42" value="" style="endArrow=none;html=1;rounded=0;exitX=0.5;exitY=1;exitDx=0;exitDy=0;entryX=0.5;entryY=0;entryDx=0;entryDy=0;" edge="1" parent="1" source="S2yjp2YEOyChedMAhL5v-29" target="S2yjp2YEOyChedMAhL5v-32">
          <mxGeometry width="50" height="50" relative="1" as="geometry">
            <mxPoint x="390" y="620" as="sourcePoint" />
            <mxPoint x="440" y="570" as="targetPoint" />
          </mxGeometry>
        </mxCell>
        <mxCell id="S2yjp2YEOyChedMAhL5v-43" value="" style="endArrow=none;html=1;rounded=0;exitX=1;exitY=1;exitDx=0;exitDy=0;entryX=0.5;entryY=0;entryDx=0;entryDy=0;" edge="1" parent="1" source="S2yjp2YEOyChedMAhL5v-5" target="S2yjp2YEOyChedMAhL5v-1">
          <mxGeometry width="50" height="50" relative="1" as="geometry">
            <mxPoint x="390" y="20" as="sourcePoint" />
            <mxPoint x="440" y="-30" as="targetPoint" />
          </mxGeometry>
        </mxCell>
        <mxCell id="S2yjp2YEOyChedMAhL5v-44" value="" style="endArrow=none;html=1;rounded=0;exitX=0.558;exitY=1.017;exitDx=0;exitDy=0;exitPerimeter=0;" edge="1" parent="1" source="S2yjp2YEOyChedMAhL5v-1" target="S2yjp2YEOyChedMAhL5v-8">
          <mxGeometry width="50" height="50" relative="1" as="geometry">
            <mxPoint x="390" y="220" as="sourcePoint" />
            <mxPoint x="440" y="170" as="targetPoint" />
          </mxGeometry>
        </mxCell>
        <mxCell id="S2yjp2YEOyChedMAhL5v-45" value="EST. PRIMARIA" style="rounded=0;whiteSpace=wrap;html=1;" vertex="1" parent="1">
          <mxGeometry x="510" y="60" width="120" height="60" as="geometry" />
        </mxCell>
        <mxCell id="S2yjp2YEOyChedMAhL5v-46" value="" style="rhombus;whiteSpace=wrap;html=1;" vertex="1" parent="1">
          <mxGeometry x="350" y="55" width="70" height="70" as="geometry" />
        </mxCell>
        <mxCell id="S2yjp2YEOyChedMAhL5v-47" value="Volumen" style="ellipse;whiteSpace=wrap;html=1;" vertex="1" parent="1">
          <mxGeometry x="390" y="-5" width="70" height="35" as="geometry" />
        </mxCell>
        <mxCell id="S2yjp2YEOyChedMAhL5v-48" value="&lt;u&gt;Fecha&lt;/u&gt;" style="ellipse;whiteSpace=wrap;html=1;" vertex="1" parent="1">
          <mxGeometry x="290" y="-2.5" width="70" height="32.5" as="geometry" />
        </mxCell>
        <mxCell id="S2yjp2YEOyChedMAhL5v-49" value="" style="endArrow=none;html=1;rounded=0;entryX=0.5;entryY=1;entryDx=0;entryDy=0;exitX=0.5;exitY=0;exitDx=0;exitDy=0;" edge="1" parent="1" source="S2yjp2YEOyChedMAhL5v-46" target="S2yjp2YEOyChedMAhL5v-48">
          <mxGeometry width="50" height="50" relative="1" as="geometry">
            <mxPoint x="390" y="220" as="sourcePoint" />
            <mxPoint x="440" y="170" as="targetPoint" />
          </mxGeometry>
        </mxCell>
        <mxCell id="S2yjp2YEOyChedMAhL5v-50" value="" style="endArrow=none;html=1;rounded=0;entryX=0.5;entryY=1;entryDx=0;entryDy=0;exitX=0.5;exitY=0;exitDx=0;exitDy=0;" edge="1" parent="1" source="S2yjp2YEOyChedMAhL5v-46" target="S2yjp2YEOyChedMAhL5v-47">
          <mxGeometry width="50" height="50" relative="1" as="geometry">
            <mxPoint x="390" y="220" as="sourcePoint" />
            <mxPoint x="440" y="170" as="targetPoint" />
          </mxGeometry>
        </mxCell>
        <mxCell id="S2yjp2YEOyChedMAhL5v-51" value="" style="endArrow=none;html=1;rounded=0;entryX=1;entryY=0.5;entryDx=0;entryDy=0;" edge="1" parent="1" source="S2yjp2YEOyChedMAhL5v-45" target="S2yjp2YEOyChedMAhL5v-46">
          <mxGeometry width="50" height="50" relative="1" as="geometry">
            <mxPoint x="390" y="220" as="sourcePoint" />
            <mxPoint x="440" y="170" as="targetPoint" />
          </mxGeometry>
        </mxCell>
        <mxCell id="S2yjp2YEOyChedMAhL5v-52" value="" style="endArrow=none;html=1;rounded=0;exitX=0;exitY=0.5;exitDx=0;exitDy=0;entryX=1;entryY=0.5;entryDx=0;entryDy=0;" edge="1" parent="1" source="S2yjp2YEOyChedMAhL5v-46" target="S2yjp2YEOyChedMAhL5v-1">
          <mxGeometry width="50" height="50" relative="1" as="geometry">
            <mxPoint x="390" y="220" as="sourcePoint" />
            <mxPoint x="440" y="170" as="targetPoint" />
          </mxGeometry>
        </mxCell>
        <mxCell id="S2yjp2YEOyChedMAhL5v-53" value="Id" style="ellipse;whiteSpace=wrap;html=1;" vertex="1" parent="1">
          <mxGeometry x="530" y="-7.5" width="80" height="40" as="geometry" />
        </mxCell>
        <mxCell id="S2yjp2YEOyChedMAhL5v-54" value="" style="endArrow=none;html=1;rounded=0;" edge="1" parent="1" source="S2yjp2YEOyChedMAhL5v-45" target="S2yjp2YEOyChedMAhL5v-53">
          <mxGeometry width="50" height="50" relative="1" as="geometry">
            <mxPoint x="390" y="220" as="sourcePoint" />
            <mxPoint x="440" y="170" as="targetPoint" />
          </mxGeometry>
        </mxCell>
        <mxCell id="S2yjp2YEOyChedMAhL5v-55" value="" style="rhombus;whiteSpace=wrap;html=1;" vertex="1" parent="1">
          <mxGeometry x="690" y="62.5" width="60" height="55" as="geometry" />
        </mxCell>
        <mxCell id="S2yjp2YEOyChedMAhL5v-56" value="RED" style="rounded=0;whiteSpace=wrap;html=1;" vertex="1" parent="1">
          <mxGeometry x="810" y="60" width="120" height="60" as="geometry" />
        </mxCell>
        <mxCell id="S2yjp2YEOyChedMAhL5v-57" value="&lt;u&gt;Codigo&lt;/u&gt;" style="ellipse;whiteSpace=wrap;html=1;" vertex="1" parent="1">
          <mxGeometry x="865" y="-10" width="60" height="30" as="geometry" />
        </mxCell>
        <mxCell id="S2yjp2YEOyChedMAhL5v-58" value="Recibe" style="text;html=1;align=center;verticalAlign=middle;resizable=0;points=[];autosize=1;strokeColor=none;fillColor=none;" vertex="1" parent="1">
          <mxGeometry x="360" y="140" width="60" height="30" as="geometry" />
        </mxCell>
        <mxCell id="S2yjp2YEOyChedMAhL5v-59" value="" style="endArrow=none;html=1;rounded=0;entryX=0;entryY=0.5;entryDx=0;entryDy=0;exitX=1;exitY=0.5;exitDx=0;exitDy=0;" edge="1" parent="1" source="S2yjp2YEOyChedMAhL5v-45" target="S2yjp2YEOyChedMAhL5v-55">
          <mxGeometry width="50" height="50" relative="1" as="geometry">
            <mxPoint x="550" y="120" as="sourcePoint" />
            <mxPoint x="600" y="70" as="targetPoint" />
          </mxGeometry>
        </mxCell>
        <mxCell id="S2yjp2YEOyChedMAhL5v-60" value="" style="endArrow=none;html=1;rounded=0;entryX=0;entryY=0.5;entryDx=0;entryDy=0;exitX=1;exitY=0.5;exitDx=0;exitDy=0;" edge="1" parent="1" source="S2yjp2YEOyChedMAhL5v-55" target="S2yjp2YEOyChedMAhL5v-56">
          <mxGeometry width="50" height="50" relative="1" as="geometry">
            <mxPoint x="550" y="120" as="sourcePoint" />
            <mxPoint x="600" y="70" as="targetPoint" />
          </mxGeometry>
        </mxCell>
        <mxCell id="S2yjp2YEOyChedMAhL5v-61" value="1" style="text;html=1;align=center;verticalAlign=middle;resizable=0;points=[];autosize=1;strokeColor=none;fillColor=none;" vertex="1" parent="1">
          <mxGeometry x="630" y="90" width="30" height="30" as="geometry" />
        </mxCell>
        <mxCell id="S2yjp2YEOyChedMAhL5v-62" value="N" style="text;html=1;align=center;verticalAlign=middle;resizable=0;points=[];autosize=1;strokeColor=none;fillColor=none;" vertex="1" parent="1">
          <mxGeometry x="780" y="90" width="30" height="30" as="geometry" />
        </mxCell>
        <mxCell id="S2yjp2YEOyChedMAhL5v-63" value="" style="endArrow=none;html=1;rounded=0;entryX=0.5;entryY=1;entryDx=0;entryDy=0;exitX=0.5;exitY=0;exitDx=0;exitDy=0;" edge="1" parent="1" source="S2yjp2YEOyChedMAhL5v-56" target="S2yjp2YEOyChedMAhL5v-57">
          <mxGeometry width="50" height="50" relative="1" as="geometry">
            <mxPoint x="550" y="120" as="sourcePoint" />
            <mxPoint x="600" y="70" as="targetPoint" />
          </mxGeometry>
        </mxCell>
        <mxCell id="S2yjp2YEOyChedMAhL5v-65" value="" style="rhombus;whiteSpace=wrap;html=1;" vertex="1" parent="1">
          <mxGeometry x="840" y="170" width="60" height="55" as="geometry" />
        </mxCell>
        <mxCell id="S2yjp2YEOyChedMAhL5v-66" value="" style="endArrow=none;html=1;rounded=0;exitX=0.5;exitY=0;exitDx=0;exitDy=0;" edge="1" parent="1" source="S2yjp2YEOyChedMAhL5v-65" target="S2yjp2YEOyChedMAhL5v-56">
          <mxGeometry width="50" height="50" relative="1" as="geometry">
            <mxPoint x="700" y="277.5" as="sourcePoint" />
            <mxPoint x="960" y="247.5" as="targetPoint" />
          </mxGeometry>
        </mxCell>
        <mxCell id="S2yjp2YEOyChedMAhL5v-67" value="N" style="text;html=1;align=center;verticalAlign=middle;resizable=0;points=[];autosize=1;strokeColor=none;fillColor=none;" vertex="1" parent="1">
          <mxGeometry x="840" y="117.5" width="30" height="30" as="geometry" />
        </mxCell>
        <mxCell id="S2yjp2YEOyChedMAhL5v-69" value="COMPAÃIA" style="rounded=0;whiteSpace=wrap;html=1;" vertex="1" parent="1">
          <mxGeometry x="810" y="277.5" width="120" height="60" as="geometry" />
        </mxCell>
        <mxCell id="S2yjp2YEOyChedMAhL5v-70" value="" style="endArrow=none;html=1;rounded=0;entryX=0.5;entryY=1;entryDx=0;entryDy=0;exitX=0.5;exitY=0;exitDx=0;exitDy=0;" edge="1" parent="1" source="S2yjp2YEOyChedMAhL5v-69" target="S2yjp2YEOyChedMAhL5v-65">
          <mxGeometry width="50" height="50" relative="1" as="geometry">
            <mxPoint x="550" y="320" as="sourcePoint" />
            <mxPoint x="600" y="270" as="targetPoint" />
          </mxGeometry>
        </mxCell>
        <mxCell id="S2yjp2YEOyChedMAhL5v-71" value="1" style="text;html=1;align=center;verticalAlign=middle;resizable=0;points=[];autosize=1;strokeColor=none;fillColor=none;" vertex="1" parent="1">
          <mxGeometry x="865" y="248" width="30" height="30" as="geometry" />
        </mxCell>
        <mxCell id="S2yjp2YEOyChedMAhL5v-72" value="Id" style="ellipse;whiteSpace=wrap;html=1;" vertex="1" parent="1">
          <mxGeometry x="970" y="290" width="70" height="40" as="geometry" />
        </mxCell>
        <mxCell id="S2yjp2YEOyChedMAhL5v-73" value="" style="endArrow=none;html=1;rounded=0;entryX=0;entryY=0.5;entryDx=0;entryDy=0;" edge="1" parent="1" target="S2yjp2YEOyChedMAhL5v-72">
          <mxGeometry width="50" height="50" relative="1" as="geometry">
            <mxPoint x="930" y="310" as="sourcePoint" />
            <mxPoint x="600" y="270" as="targetPoint" />
          </mxGeometry>
        </mxCell>
        <mxCell id="S2yjp2YEOyChedMAhL5v-75" value="" style="rhombus;whiteSpace=wrap;html=1;" vertex="1" parent="1">
          <mxGeometry x="930" y="130" width="40" height="40" as="geometry" />
        </mxCell>
        <mxCell id="S2yjp2YEOyChedMAhL5v-76" value="" style="endArrow=none;html=1;rounded=0;entryX=0.75;entryY=1;entryDx=0;entryDy=0;exitX=0;exitY=0.5;exitDx=0;exitDy=0;" edge="1" parent="1" source="S2yjp2YEOyChedMAhL5v-75" target="S2yjp2YEOyChedMAhL5v-56">
          <mxGeometry width="50" height="50" relative="1" as="geometry">
            <mxPoint x="550" y="120" as="sourcePoint" />
            <mxPoint x="600" y="70" as="targetPoint" />
            <Array as="points">
              <mxPoint x="900" y="150" />
            </Array>
          </mxGeometry>
        </mxCell>
        <mxCell id="S2yjp2YEOyChedMAhL5v-77" value="" style="endArrow=none;html=1;rounded=0;entryX=0.5;entryY=0;entryDx=0;entryDy=0;exitX=1;exitY=0.867;exitDx=0;exitDy=0;exitPerimeter=0;" edge="1" parent="1" source="S2yjp2YEOyChedMAhL5v-56" target="S2yjp2YEOyChedMAhL5v-75">
          <mxGeometry width="50" height="50" relative="1" as="geometry">
            <mxPoint x="550" y="110" as="sourcePoint" />
            <mxPoint x="600" y="60" as="targetPoint" />
            <Array as="points">
              <mxPoint x="950" y="112" />
            </Array>
          </mxGeometry>
        </mxCell>
        <mxCell id="S2yjp2YEOyChedMAhL5v-78" value="Intercambia" style="text;html=1;align=center;verticalAlign=middle;resizable=0;points=[];autosize=1;strokeColor=none;fillColor=none;" vertex="1" parent="1">
          <mxGeometry x="905" y="168" width="90" height="30" as="geometry" />
        </mxCell>
        <mxCell id="S2yjp2YEOyChedMAhL5v-79" value="N" style="text;html=1;align=center;verticalAlign=middle;resizable=0;points=[];autosize=1;strokeColor=none;fillColor=none;" vertex="1" parent="1">
          <mxGeometry x="920" y="110" width="30" height="30" as="geometry" />
        </mxCell>
        <mxCell id="S2yjp2YEOyChedMAhL5v-80" value="N" style="text;html=1;align=center;verticalAlign=middle;resizable=0;points=[];autosize=1;strokeColor=none;fillColor=none;" vertex="1" parent="1">
          <mxGeometry x="875" y="117.5" width="30" height="30" as="geometry" />
        </mxCell>
        <mxCell id="S2yjp2YEOyChedMAhL5v-82" value="" style="endArrow=none;html=1;rounded=0;entryX=1;entryY=0.5;entryDx=0;entryDy=0;" edge="1" parent="1" target="S2yjp2YEOyChedMAhL5v-56">
          <mxGeometry width="50" height="50" relative="1" as="geometry">
            <mxPoint x="1000" y="90" as="sourcePoint" />
            <mxPoint x="600" y="60" as="targetPoint" />
          </mxGeometry>
        </mxCell>
        <mxCell id="S2yjp2YEOyChedMAhL5v-83" value="" style="rhombus;whiteSpace=wrap;html=1;" vertex="1" parent="1">
          <mxGeometry x="970" y="62.5" width="60" height="55" as="geometry" />
        </mxCell>
        <mxCell id="S2yjp2YEOyChedMAhL5v-84" value="" style="endArrow=none;html=1;rounded=0;entryX=1;entryY=0.5;entryDx=0;entryDy=0;exitX=0;exitY=0.4;exitDx=0;exitDy=0;exitPerimeter=0;" edge="1" parent="1" source="S2yjp2YEOyChedMAhL5v-86" target="S2yjp2YEOyChedMAhL5v-83">
          <mxGeometry width="50" height="50" relative="1" as="geometry">
            <mxPoint x="1080" y="90" as="sourcePoint" />
            <mxPoint x="600" y="60" as="targetPoint" />
          </mxGeometry>
        </mxCell>
        <mxCell id="S2yjp2YEOyChedMAhL5v-86" value="LINEA" style="rounded=0;whiteSpace=wrap;html=1;" vertex="1" parent="1">
          <mxGeometry x="1097.5" y="70" width="105" height="52.5" as="geometry" />
        </mxCell>
      </root>
    </mxGraphModel>
  </diagram>
</mxfile>
